<svg viewBox="0 0 12 12" width="60px" height="60px" xmlns="http://www.w3.org/2000/svg"><path fill-rule="evenodd" d="M 0,0 11,0 11,3 10,3 10,4 11,4 11,11 8,11 8,10 6,10 6,9 5,9 5,10 3,10 3,11 0,11 0,4 1,4 1,3 0,3z" fill="#32A467"/><path fill-rule="evenodd" d="M 1,1 2,1 2,2 1,2z" fill="#ffffff"/><path fill-rule="evenodd" d="M 3,1 5,1 5,2 3,2z" fill="#ffffff"/><path fill-rule="evenodd" d="M 6,1 8,1 8,2 6,2z" fill="#ffffff"/><path fill-rule="evenodd" d="M 9,1 10,1 10,2 9,2z" fill="#ffffff"/><path fill-rule="evenodd" d="M 2,4 4,4 4,5 2,5z" fill="#ffffff"/><path fill-rule="evenodd" d="M 5,4 6,4 6,5 5,5z" fill="#ffffff"/><path fill-rule="evenodd" d="M 7,4 9,4 9,5 7,5z" fill="#ffffff"/><path fill-rule="evenodd" d="M 1,5 2,5 2,6 1,6z" fill="#ffffff"/><path fill-rule="evenodd" d="M 4,5 5,5 5,6 6,6 6,5 7,5 7,8 6,8 6,7 5,7 5,8 4,8z" fill="#ffffff"/><path fill-rule="evenodd" d="M 9,5 10,5 10,6 9,6z" fill="#ffffff"/><path fill-rule="evenodd" d="M 1,7 2,7 2,8 1,8z" fill="#ffffff"/><path fill-rule="evenodd" d="M 9,7 10,7 10,8 9,8z" fill="#ffffff"/><path fill-rule="evenodd" d="M 2,8 4,8 4,9 2,9z" fill="#ffffff"/><path fill-rule="evenodd" d="M 7,8 9,8 9,9 7,9z" fill="#ffffff"/><path fill-rule="evenodd" d="M 1,9 2,9 2,10 1,10z" fill="#ffffff"/><path fill-rule="evenodd" d="M 9,9 10,9 10,10 9,10z" fill="#ffffff"/></svg>